<svg width="current" height="current" viewBox="0 0 29 6" fill="current" xmlns="http://www.w3.org/2000/svg">
<path d="M1 2.5C0.723858 2.5 0.5 2.72386 0.5 3C0.5 3.27614 0.723858 3.5 1 3.5L1 2.5ZM27 3.5C27.2761 3.5 27.5 3.27614 27.5 3C27.5 2.72386 27.2761 2.5 27 2.5L27 3.5ZM1 3.5L27 3.5L27 2.5L1 2.5L1 3.5Z" fill="#001AFF"/>
<path d="M23.0562 5.48098C22.8707 5.77091 23.1793 6.12978 23.4621 5.9531L28.1729 3.44103C28.5259 3.25284 28.5259 2.74702 28.1731 2.55872L23.4753 0.0518132C23.1976 -0.133528 22.879 0.215634 23.0562 0.511169C24.0139 2.10886 24.0586 3.91359 23.0562 5.48098Z" fill="#001AFF"/>
</svg>
